<?xml version="1.0" standalone="no"?>
<!DOCTYPE svg PUBLIC "-//W3C//DTD SVG 20010904//EN"
 "http://www.w3.org/TR/2001/REC-SVG-20010904/DTD/svg10.dtd">
<svg version="1.0" xmlns="http://www.w3.org/2000/svg"
 width="500.000000pt" height="500.000000pt" viewBox="0 0 500.000000 500.000000"
 preserveAspectRatio="xMidYMid meet">

<g transform="translate(0.000000,500.000000) scale(0.100000,-0.100000)"
fill="#000000" stroke="none">
<path d="M2680 4964 c-411 -22 -802 -116 -1109 -265 -98 -48 -137 -73 -181
-118 -64 -63 -74 -91 -58 -166 20 -97 111 -246 186 -303 l35 -26 -7 -86 c-28
-393 -197 -1157 -461 -2095 -131 -465 -215 -775 -282 -1040 -60 -237 -66 -270
-67 -370 -1 -109 0 -112 36 -185 62 -125 193 -254 282 -278 35 -10 40 -9 62
15 43 46 127 287 279 798 140 473 334 1110 346 1141 l11 29 16 -35 c170 -377
396 -677 828 -1100 369 -361 656 -588 914 -724 255 -134 475 -162 576 -74 70
62 64 149 -16 253 -53 68 -253 251 -510 465 -361 302 -970 894 -1073 1043 -48
69 -86 161 -87 205 0 25 8 41 32 62 18 17 158 95 313 174 374 192 465 244 725
410 260 165 405 295 553 492 86 114 179 301 212 424 33 124 46 280 35 402 -22
228 -90 377 -245 534 -201 203 -503 344 -855 398 -97 15 -372 26 -490 20z
m345 -614 c319 -22 508 -107 585 -264 75 -151 39 -383 -89 -579 -89 -135 -310
-349 -476 -458 -81 -54 -313 -184 -639 -358 -262 -141 -397 -218 -478 -272
-61 -42 -84 -49 -74 -23 3 8 28 100 55 203 145 552 210 879 231 1169 10 141 1
221 -36 329 -14 41 -22 79 -17 83 14 14 248 88 375 119 125 30 239 49 338 54
30 2 64 4 75 5 11 1 79 -3 150 -8z"/>
</g>
</svg>
